<svg xmlns="http://www.w3.org/2000/svg" xmlns:xlink="http://www.w3.org/1999/xlink" width="256" height="258" viewBox="0 0 256 258">
  <defs>
    <linearGradient id="cta-button--learn-c" x1="50%" x2="50%" y1="100%" y2="0%">
      <stop offset="0%" stop-color="#EF7B7B"/>
      <stop offset="79.278%" stop-color="#9E4646"/>
      <stop offset="94.209%" stop-color="#9E4646"/>
      <stop offset="100%" stop-color="#9E4646"/>
    </linearGradient>
    <circle id="cta-button--learn-b" cx="121" cy="121" r="121"/>
    <filter id="cta-button--learn-a" width="107.4%" height="108.3%" x="-4.1%" y="-3.3%" filterUnits="objectBoundingBox">
      <feMorphology in="SourceAlpha" operator="dilate" radius="6" result="shadowSpreadOuter1"/>
      <feOffset dx="-2" dy="4" in="shadowSpreadOuter1" result="shadowOffsetOuter1"/>
      <feMorphology in="SourceAlpha" radius="1" result="shadowInner"/>
      <feOffset dx="-2" dy="4" in="shadowInner" result="shadowInner"/>
      <feComposite in="shadowOffsetOuter1" in2="shadowInner" operator="out" result="shadowOffsetOuter1"/>
      <feColorMatrix in="shadowOffsetOuter1" values="0 0 0 0 0.0196078431   0 0 0 0 0.101960784   0 0 0 0 0.149019608  0 0 0 1 0"/>
    </filter>
    <text id="cta-button--learn-e" fill="#FFF" font-family="Gotham-Bold, Gotham" font-size="34" font-weight="bold" letter-spacing="-1.6">
      <tspan x="64.436" y="178">LEARN</tspan>
    </text>
    <filter id="cta-button--learn-d" width="103.5%" height="123.5%" x="-1.7%" y="-5.9%" filterUnits="objectBoundingBox">
      <feOffset dy="4" in="SourceAlpha" result="shadowOffsetOuter1"/>
      <feColorMatrix in="shadowOffsetOuter1" values="0 0 0 0 0.0509803922   0 0 0 0 0.0784313725   0 0 0 0 0.184313725  0 0 0 1 0"/>
    </filter>
    <path id="cta-button--learn-g" d="M159,86 C159,106.439069 142.433101,123 122,123 C101.566899,123 85,106.439069 85,86 C85,65.5728669 101.566899,49 122,49 C142.433101,49 159,65.5728669 159,86 Z M122.992883,61.233871 C114.862282,61.233871 109.676613,64.6589073 105.604524,70.7461532 C105.076976,71.5347903 105.253472,72.5983911 106.009585,73.1717419 L111.186452,77.0970242 C111.963004,77.6858911 113.069423,77.5457984 113.672762,76.7804355 C116.337956,73.4000081 118.165427,71.439754 122.222,71.439754 C125.269875,71.439754 129.039847,73.4013508 129.039847,76.356875 C129.039847,78.5911976 127.195367,79.7386452 124.185984,81.425875 C120.676355,83.3932903 116.032258,85.842004 116.032258,91.9677419 L116.032258,92.5645161 C116.032258,93.5532218 116.833875,94.3548387 117.822581,94.3548387 L126.177419,94.3548387 C127.166125,94.3548387 127.967742,93.5532218 127.967742,92.5645161 L127.967742,92.3656411 C127.967742,88.1192944 140.378556,87.9425 140.378556,76.4516129 C140.378556,67.7980887 131.402327,61.233871 122.992883,61.233871 L122.992883,61.233871 Z M122,98.233871 C118.215706,98.233871 115.137097,101.31248 115.137097,105.096774 C115.137097,108.880919 118.215706,111.959677 122,111.959677 C125.784294,111.959677 128.862903,108.880919 128.862903,105.096774 C128.862903,101.31248 125.784294,98.233871 122,98.233871 Z"/>
    <filter id="cta-button--learn-f" width="104.1%" height="105.4%" x="-2.7%" y="-1.4%" filterUnits="objectBoundingBox">
      <feOffset dx="-1" dy="2" in="SourceAlpha" result="shadowOffsetOuter1"/>
      <feColorMatrix in="shadowOffsetOuter1" values="0 0 0 0 0.0196078431   0 0 0 0 0.101960784   0 0 0 0 0.149019608  0 0 0 1 0"/>
    </filter>
  </defs>
  <g fill="none" fill-rule="evenodd" transform="translate(8 6)">
    <g stroke-linecap="round">
      <use fill="#000" filter="url(#cta-button--learn-a)" xlink:href="#cta-button--learn-b"/>
      <circle cx="121" cy="121" r="124" stroke="url(#cta-button--learn-c)" stroke-width="6"/>
    </g>
    <g fill="#FFF">
      <use filter="url(#cta-button--learn-d)" xlink:href="#cta-button--learn-e"/>
      <use xlink:href="#cta-button--learn-e"/>
    </g>
    <use fill="#000" filter="url(#cta-button--learn-f)" xlink:href="#cta-button--learn-g"/>
    <use fill="#FFF" xlink:href="#cta-button--learn-g"/>
  </g>
</svg>
