<?xml version="1.0" encoding="UTF-8"?>
<svg width="748px" height="48px" viewBox="0 0 748 48" version="1.1" xmlns="http://www.w3.org/2000/svg" xmlns:xlink="http://www.w3.org/1999/xlink">
    <!-- Generator: Sketch 58 (84663) - https://sketch.com -->
    <title>donate--label</title>
    <desc>Created with Sketch.</desc>
    <defs>
        <path d="M270.441818,140 L277.821818,140 L277.821818,123.56 L295.581818,123.56 L295.581818,116.96 L277.821818,116.96 L277.821818,104.66 L297.861818,104.66 L297.861818,97.82 L270.441818,97.82 L270.441818,140 Z M304.603636,122.54 C304.603636,135.14 311.503636,140.78 322.063636,140.78 C332.623636,140.78 339.763636,135.14 339.763636,122.54 L339.763636,97.82 L332.323636,97.82 L332.323636,122.48 C332.323636,130.58 328.423636,133.94 322.063636,133.94 C315.703636,133.94 312.043636,130.58 312.043636,122.54 L312.043636,97.82 L304.603636,97.82 L304.603636,122.54 Z M349.925455,140 L357.365455,140 L357.365455,113.84 L383.825455,140.3 L385.805455,140.3 L385.805455,97.82 L378.365455,97.82 L378.365455,124.76 L352.265455,97.58 L349.925455,97.58 L349.925455,140 Z M396.507273,140 L412.407273,140 C425.307273,140 434.967273,130.94 434.967273,118.88 C434.967273,106.64 425.487273,97.82 412.407273,97.82 L396.507273,97.82 L396.507273,140 Z M412.467273,104.66 C420.927273,104.66 426.987273,110.72 426.987273,119 C426.987273,127.22 420.627273,133.16 412.467273,133.16 L404.007273,133.16 L404.007273,104.66 L412.467273,104.66 Z M442.969091,140 L450.409091,140 L450.409091,127.76 L455.029091,127.76 C455.809091,127.76 456.529091,127.76 457.249091,127.7 C462.349091,130.58 461.749091,140.24 472.249091,140.24 L472.762218,140.234752 C474.923989,140.190408 476.269091,139.88 476.269091,139.88 L476.269091,133.28 L474.589091,133.28 C469.549091,133.28 468.649091,128.9 465.469091,126.14 C471.109091,123.38 473.329091,117.2 473.329091,112.82 C473.329091,104 467.689091,97.82 456.469091,97.82 L442.969091,97.82 L442.969091,140 Z M455.929091,104.66 C462.949091,104.66 465.289091,108.2 465.289091,112.82 C465.289091,117.44 462.889091,121.16 455.929091,121.16 L450.409091,121.16 L450.409091,104.66 L455.929091,104.66 Z M510.670909,140 L518.170909,140 L518.170909,115.94 C518.170909,102.98 511.450909,97.1 500.470909,97.1 C489.490909,97.1 483.010909,102.98 483.010909,115.94 L483.010909,140 L490.510909,140 L490.510909,129.92 L510.670909,129.92 L510.670909,140 Z M490.510909,115.94 C490.510909,107.42 494.710909,103.94 500.590909,103.94 C506.470909,103.94 510.670909,107 510.670909,116 L510.670909,123.98 L498.644029,123.99296 C495.205309,124.0016 491.998909,124.016 490.510909,124.04 L490.510909,115.94 Z M528.332727,140 L535.772727,140 L535.772727,97.82 L528.332727,97.82 L528.332727,140 Z M572.274545,128.6 C572.274545,123.08 569.574545,119.36 560.154545,115.7 L559.431008,115.432391 C554.028504,113.398229 551.934545,111.7475 551.934545,109.16 C551.934545,106.22 553.974545,103.76 558.414545,103.76 C561.654545,103.76 565.374545,105.2 567.834545,106.58 L570.234545,99.98 C567.534545,98.42 563.094545,97.1 558.594545,97.1 C549.594545,97.1 544.434545,102.98 544.434545,109.34 C544.434545,114.294576 547.159762,118.147469 555.061221,121.126681 L555.474545,121.28 C563.094545,124.1 564.654545,125.78 564.654545,128.6 C564.654545,131.3 562.374545,133.76 557.394545,133.76 C553.614545,133.76 549.414545,132.32 545.934545,129.98 L543.354545,136.7 C547.194545,139.04 552.174545,140.72 557.154545,140.72 C566.574545,140.72 572.274545,136.1 572.274545,128.6 Z M579.796364,140 L587.236364,140 L587.236364,97.82 L579.796364,97.82 L579.796364,140 Z M597.938182,140 L605.378182,140 L605.378182,113.84 L631.838182,140.3 L633.818182,140.3 L633.818182,97.82 L626.378182,97.82 L626.378182,124.76 L600.278182,97.58 L597.938182,97.58 L597.938182,140 Z M662.88,117.86 L662.88,124.52 L674.64,124.52 L674.64,132.02 C672.36,132.86 668.94,133.7 665.04,133.7 C656.28,133.7 649.8,127.46 649.8,119 C649.8,110.36 655.86,104.12 665.76,104.12 C671.34,104.12 676.8,106.88 676.8,106.88 L679.38,100.52 L679.274257,100.45686 C678.4736,99.9906296 673.160323,97.1 664.5,97.1 C652.02,97.1 641.76,106.7 641.76,118.88 C641.76,131.36 651.24,140.72 665.52,140.72 C675.54,140.72 681.84,135.92 681.84,135.92 L681.84,117.86 L662.88,117.86 Z M720.103636,127.76 C732.823636,127.76 738.403636,121.64 738.403636,112.82 C738.403636,104 732.763636,97.82 721.543636,97.82 L708.643636,97.82 L708.643636,140 L716.083636,140 L716.083636,127.76 L720.103636,127.76 Z M721.003636,104.66 C728.023636,104.66 730.363636,108.2 730.363636,112.82 C730.363636,117.44 727.963636,121.16 721.003636,121.16 L716.083636,121.16 L716.083636,104.66 L721.003636,104.66 Z M745.385455,140 L752.825455,140 L752.825455,127.76 L757.445455,127.76 C758.225455,127.76 758.945455,127.76 759.665455,127.7 C764.765455,130.58 764.165455,140.24 774.665455,140.24 L775.178581,140.234752 C777.340353,140.190408 778.685455,139.88 778.685455,139.88 L778.685455,133.28 L777.005455,133.28 C771.965455,133.28 771.065455,128.9 767.885455,126.14 C773.525455,123.38 775.745455,117.2 775.745455,112.82 C775.745455,104 770.105455,97.82 758.885455,97.82 L745.385455,97.82 L745.385455,140 Z M758.345455,104.66 C765.365455,104.66 767.705455,108.2 767.705455,112.82 C767.705455,117.44 765.305455,121.16 758.345455,121.16 L752.825455,121.16 L752.825455,104.66 L758.345455,104.66 Z M782.727273,118.88 C782.727273,131.36 792.327273,140.66 805.227273,140.66 C818.127273,140.66 827.787273,131.3 827.787273,118.88 C827.787273,106.28 818.307273,97.1 805.227273,97.1 C792.567273,97.1 782.727273,106.7 782.727273,118.88 Z M790.767273,119 C790.767273,110.36 796.947273,103.82 805.287273,103.82 C813.747273,103.82 819.807273,110.36 819.807273,119 C819.807273,127.58 813.447273,134.12 805.287273,134.12 C797.127273,134.12 790.767273,127.46 790.767273,119 Z M854.089091,117.86 L854.089091,124.52 L865.849091,124.52 L865.849091,132.02 C863.569091,132.86 860.149091,133.7 856.249091,133.7 C847.489091,133.7 841.009091,127.46 841.009091,119 C841.009091,110.36 847.069091,104.12 856.969091,104.12 C862.549091,104.12 868.009091,106.88 868.009091,106.88 L870.589091,100.52 L870.319597,100.363872 C869.114127,99.69436 863.913607,97.1 855.709091,97.1 C843.229091,97.1 832.969091,106.7 832.969091,118.88 C832.969091,131.36 842.449091,140.72 856.729091,140.72 C866.749091,140.72 873.049091,135.92 873.049091,135.92 L873.049091,117.86 L854.089091,117.86 Z M881.470909,140 L888.910909,140 L888.910909,127.76 L893.530909,127.76 C894.310909,127.76 895.030909,127.76 895.750909,127.7 C900.850909,130.58 900.250909,140.24 910.750909,140.24 L911.264036,140.234752 C913.425807,140.190408 914.770909,139.88 914.770909,139.88 L914.770909,133.28 L913.090909,133.28 C908.050909,133.28 907.150909,128.9 903.970909,126.14 C909.610909,123.38 911.830909,117.2 911.830909,112.82 C911.830909,104 906.190909,97.82 894.970909,97.82 L881.470909,97.82 L881.470909,140 Z M894.430909,104.66 C901.450909,104.66 903.790909,108.2 903.790909,112.82 C903.790909,117.44 901.390909,121.16 894.430909,121.16 L888.910909,121.16 L888.910909,104.66 L894.430909,104.66 Z M921.992727,140 L949.412727,140 L949.412727,133.16 L929.432727,133.16 L929.432727,123.08 L947.552727,123.08 L947.552727,116.48 L929.432727,116.48 L929.432727,104.66 L949.412727,104.66 L949.412727,97.82 L921.992727,97.82 L921.992727,140 Z M984.234545,128.6 C984.234545,123.08 981.534545,119.36 972.114545,115.7 L971.391008,115.432391 C965.988504,113.398229 963.894545,111.7475 963.894545,109.16 C963.894545,106.22 965.934545,103.76 970.374545,103.76 C973.614545,103.76 977.334545,105.2 979.794545,106.58 L982.194545,99.98 C979.494545,98.42 975.054545,97.1 970.554545,97.1 C961.554545,97.1 956.394545,102.98 956.394545,109.34 C956.394545,114.294576 959.119762,118.147469 967.021221,121.126681 L967.434545,121.28 C975.054545,124.1 976.614545,125.78 976.614545,128.6 C976.614545,131.3 974.334545,133.76 969.354545,133.76 C965.574545,133.76 961.374545,132.32 957.894545,129.98 L955.314545,136.7 C959.154545,139.04 964.134545,140.72 969.114545,140.72 C978.534545,140.72 984.234545,136.1 984.234545,128.6 Z M1017.55636,128.6 C1017.55636,136.1 1011.85636,140.72 1002.43636,140.72 C997.456364,140.72 992.476364,139.04 988.636364,136.7 L991.216364,129.98 C994.696364,132.32 998.896364,133.76 1002.67636,133.76 C1007.65636,133.76 1009.93636,131.3 1009.93636,128.6 L1009.93061,128.312249 C1009.82352,125.710094 1008.17409,124.062361 1001.14512,121.424857 L1000.75636,121.28 C992.536364,118.28 989.716364,114.38 989.716364,109.34 C989.716364,102.98 994.876364,97.1 1003.87636,97.1 C1008.37636,97.1 1012.81636,98.42 1015.51636,99.98 L1013.11636,106.58 C1010.65636,105.2 1006.93636,103.76 1003.69636,103.76 C999.256364,103.76 997.216364,106.22 997.216364,109.16 C997.216364,111.86 999.496364,113.54 1005.43636,115.7 C1014.85636,119.36 1017.55636,123.08 1017.55636,128.6 Z" id="path-1"></path>
        <filter x="-0.3%" y="-4.6%" width="100.5%" height="118.3%" filterUnits="objectBoundingBox" id="filter-2">
            <feOffset dx="0" dy="4" in="SourceAlpha" result="shadowOffsetOuter1"></feOffset>
            <feColorMatrix values="0 0 0 0 0.00583658904   0 0 0 0 0.0509589761   0 0 0 0 0.0767431973  0 0 0 1 0" type="matrix" in="shadowOffsetOuter1"></feColorMatrix>
        </filter>
    </defs>
    <g id="Website-v2" stroke="none" stroke-width="1" fill="none" fill-rule="evenodd">
        <g id="light-the-night-2019___desktop-layout" transform="translate(-270.000000, -2699.000000)" fill-rule="nonzero">
            <g id="section___section--donate" transform="translate(0.000000, 2602.000000)">
                <g id="donate--label">
                    <use fill="black" fill-opacity="1" filter="url(#filter-2)" xlink:href="#path-1"></use>
                    <use fill="#FFFFFF" xlink:href="#path-1"></use>
                </g>
            </g>
        </g>
    </g>
</svg>