<?xml version="1.0" encoding="utf-8"?>
<!-- Generator: Adobe Illustrator 21.1.0, SVG Export Plug-In . SVG Version: 6.00 Build 0)  -->
<svg version="1.1" id="Layer_1" xmlns="http://www.w3.org/2000/svg" xmlns:xlink="http://www.w3.org/1999/xlink" x="0px" y="0px"
	 viewBox="0 0 262 184" style="enable-background:new 0 0 262 184;" xml:space="preserve">
<style type="text/css">
	.st0{fill:#00A1E0;}
	.st1{fill:#FFFFFF;}
</style>
<title>logo-salesforce</title>
<desc>Created with Sketch.</desc>
<g id="Test-B">
	<g id="Mobile-Nav---Test-B-_x28_0_x29_">
		<g id="Group">
			<g id="logo-salesforce">
				<path id="Fill-1" class="st0" d="M109.2,20.9c8.4-8.7,20.1-14.2,33-14.2c17.2,0,32.1,9.6,40.1,23.8c6.9-3.1,14.6-4.8,22.7-4.8
					c31,0,56,25.3,56,56.5s-25.1,56.5-56,56.5c-3.8,0-7.5-0.4-11-1.1c-7,12.5-20.4,21-35.8,21c-6.4,0-12.5-1.5-17.9-4.1
					c-7.1,16.7-23.7,28.5-43,28.5c-20.1,0-37.3-12.7-43.9-30.6c-2.9,0.6-5.9,0.9-8.9,0.9c-24,0-43.4-19.6-43.4-43.9
					c0-16.2,8.7-30.4,21.7-38c-2.7-6.1-4.2-12.9-4.2-20.1C18.5,23.6,41.2,1,69,1C85.4,1,100,8.8,109.2,20.9"/>
			</g>
		</g>
	</g>
</g>
</svg>
